<svg width="699" height="1729" xmlns="http://www.w3.org/2000/svg" xmlns:xlink="http://www.w3.org/1999/xlink">
 <defs>
  <linearGradient id="imagebot_99">
   <stop offset="0" id="imagebot_101" stop-opacity="0.5" stop-color="rgb(194, 255, 255)"/>
   <stop offset="1" id="imagebot_100" stop-opacity="0.5" stop-color="rgb(255, 255, 255)"/>
  </linearGradient>
  <linearGradient xlink:href="#imagebot_99" id="imagebot_65" x1="0.40282" y1="0.98731" x2="0.41491" y2="0.01269"/>
 </defs>
 <g id="imagebot_9">
  <polyline transform="translate(57.2205 219.345) matrix(0.908423 0 0 0.908423 -143.051 64.5502)" fill-rule="evenodd" clip-rule="evenodd" fill="none" stroke-width="11.3083" stroke="rgb(55, 52, 53)" points="399.132,1204.08 384.77,1491.31 255.517,1534.39" id="imagebot_328"/>
  <polyline transform="translate(9.53674 224.113) matrix(0.908423 0 0 0.908423 -143.051 64.5502)" fill-rule="evenodd" clip-rule="evenodd" fill="none" stroke-width="11.3083" stroke="rgb(55, 52, 53)" points="727.054,1527.21 581.045,1503.28 576.258,1208.87" id="imagebot_329"/>
  <polyline transform="matrix(0.908423 0 0 0.908423 -143.051 64.5502)" fill-rule="evenodd" clip-rule="evenodd" fill="none" stroke-width="11.3083" stroke="rgb(55, 52, 53)" points="795.271,846.238 715.086,836.664 759.367,895.307" id="imagebot_313"/>
  <path transform="matrix(0.908423 0 0 0.908423 -143.051 64.5502)" fill-rule="evenodd" clip-rule="evenodd" fill="none" stroke-width="11.3083" stroke="rgb(55, 52, 53)" d="M257.909,874.961C259.81219,871.32764 260.37534,869.75918 262.6958,866.58381L305.7804,801.95581M305.7804,801.95581L232.7763,853.41871L233.97272,851.02474" id="imagebot_312"/>
  <path transform="matrix(0.908423 0 0 0.908423 -143.051 64.5502)" fill-rule="evenodd" clip-rule="evenodd" fill="none" stroke-width="11.3083" stroke="rgb(55, 52, 53)" d="M306.978,593.714C299.30419,599.77751 305.17772,596.36693 296.2068,599.69835L174.1338,677.49035L305.7808,801.95635L317.7495,841.45055" id="imagebot_325"/>
  <polyline transform="matrix(0.908423 0 0 0.908423 -143.051 64.5502)" fill-rule="evenodd" clip-rule="evenodd" fill="none" stroke-width="11.3083" stroke="rgb(55, 52, 53)" points="704.315,824.696 873.063,702.623 747.399,608.075" id="imagebot_324"/>
  <path fill="none" fill-rule="evenodd" stroke-width="2" stroke-linecap="round" stroke-linejoin="round" stroke-miterlimit="4" stroke-dashoffset="0pt" transform="translate(-0.000311704 -0.00000344917) matrix(8.86121 -3.01407 3.01407 8.86121 -272.166 126.018)" d="M77.875,40.6875A21,22.3125 0 1 1 35.875,40.6875A21,22.3125 0 1 1 77.875,40.6875z" id="imagebot_95"/>
  <path fill="#005fbf" fill-rule="evenodd" stroke-width="1px" id="imagebot_94" d="M 159.04982686423295 922.0623631102753 C 130.7058849400711 1132.103227528677 144.831384592905 1353.2665060869408 156.89632861014366 1583.147296831808 C 206.17632073306083 1606.996672250347 304.72301409085276 1594.9415560024356 341.29326693086625 1586.4874280338001 C 347.4154992326737 1430.4006428303146 338.4929142594433 1366.1581994991016 352.745987717924 1142.2037408541203 C 366.7427903914736 1374.7894145112325 364.11933756793974 1444.1827321435164 357.6890748960782 1575.2684209611225 C 382.995955304737 1632.617011701641 550.846206001625 1593.4362225349234 541.778450835762 1566.8577223731327 C 546.0962110912992 1364.123196063757 541.3668076976587 1150.283852001505 521.3334147121525 917.659522451706 C 393.3075316762065 978.4425909797574 191.5506344203759 944.8697141867257 159.04982686423295 922.0623631102753 z"/>

  <metadata id="imagebot_172">image/svg+xml</metadata>
  <path transform="translate(0 -19.0735) matrix(2.92087 0 0 2.51418 -508.917 -1141.65)" label="Layer 1" fill="rgb(194, 37, 24)" d="M177.5,701.59367L210.12129,738.11136L214.63275,738.11136L222.96159,729.36233L222.96159,838.91543L224.34973,842.71936L350.32345,842.33895L354.14083,839.6762L353.09973,730.50351L362.46967,739.63293L366.28706,738.87215L398.21429,703.11524L398.21429,697.78974L356.22304,652.14262L312.49663,632.3622C312.49663,632.3622 296.53302,651.00144 264.95283,633.12299L223.30863,649.09947L177.5,701.59367z" id="imagebot_171"/>
  <path transform="matrix(2.92087 0 0 2.51418 -499.381 -1160.72)" label="Layer 1" fill="rgb(244, 72, 0)" stroke-width="2" d="M224.17187,652.23904A0.9718,1.04629 0 0 0 223.38237,653.3833C223.38237,653.3833 224.50689,668.4901 225.11321,684.34373C225.41637,692.27055 225.57846,700.36469 225.41686,706.83662C225.33606,710.0726 225.16823,712.9096 224.90065,715.0753C224.63306,717.241 224.18811,718.7899 223.92895,719.16195A0.97478,1.0495 0 1 0 225.47759,720.43698C226.25953,719.31448 226.56125,717.65828 226.84404,715.36954C227.12684,713.0808 227.27838,710.18132 227.36026,706.90201C227.52401,700.3434 227.36075,692.19837 227.0566,684.24565C226.4483,668.34021 225.32577,653.18714 225.32577,653.18714A0.9718,1.04629 0 0 0 224.17187,652.23904z" id="imagebot_170"/>
  <path transform="matrix(2.92087 0 0 2.51418 -499.381 -1160.72)" label="Layer 1" fill="rgb(244, 72, 0)" stroke-width="2" d="M256.48084,637.65789A0.9718,1.04629 0 0 0 255.66097,638.83485C255.66097,638.83485 256.6273,646.95526 261.1875,654.72372C265.7477,662.49218 274.1035,669.97632 288.30395,668.52024C303.03466,667.00977 310.8102,662.31478 315.20784,656.65262C319.60548,650.99046 320.58354,644.53491 322.10082,639.81564A0.9795,1.05458 0 0 0 320.24852,639.12908C318.6425,644.12435 317.70751,650.13892 313.68956,655.3122C309.67161,660.48548 302.54199,664.94926 288.12176,666.42788C274.60683,667.81367 267.1283,660.93916 262.82724,653.61216C258.52618,646.28515 257.574,638.5733 257.574,638.5733A0.9718,1.04629 0 0 0 256.48084,637.65789z" id="imagebot_169"/>
  <path transform="matrix(2.92087 0 0 2.51418 -499.381 -1160.72)" label="Layer 1" fill="rgb(244, 72, 0)" stroke-width="2" d="M264.25442,636.87326L262.73614,638.14829C262.77274,638.21289 262.82094,638.24759 262.8576,638.31176C268.63668,648.42152 274.86385,653.72806 281.01621,655.8026C287.20763,657.8903 293.20656,656.68472 298.38532,654.23333C308.74283,649.33053 316.02771,639.35794 316.02771,639.35794L314.84345,637.78867C298.02333,647.02817 285.36876,646.71176 276.91686,644.16383C268.46496,641.6159 264.25442,636.87326 264.25442,636.87326zM311.07812,641.97339C308.16523,645.19972 303.87244,649.38042 297.62618,652.33712C292.74092,654.64959 287.24431,655.71385 281.59316,653.80831C277.03051,652.26982 272.30871,648.59082 267.68573,642.07147C269.88901,643.50134 272.68208,645.0371 276.40065,646.15811C284.47333,648.59173 296.15811,648.96254 311.07812,641.97339z" id="imagebot_168"/>
  <path transform="matrix(2.92087 0 0 2.51418 -499.381 -1160.72)" label="Layer 1" fill="rgb(244, 72, 0)" stroke-width="2" d="M225.99381,833.07427A0.97277,1.04733 0 1 0 226.08481,835.16663L351.70715,835.55895A0.9718,1.04629 0 1 0 351.70715,833.46659L226.08485,833.07427A0.9718,1.04629 0 0 0 225.99385,833.07427L225.99381,833.07427z" id="imagebot_167"/>
  <path transform="matrix(2.92087 0 0 2.51418 -499.381 -1160.72)" label="Layer 1" fill="rgb(244, 72, 0)" stroke-width="2" d="M394.64416,697.06137A0.9718,1.04629 0 0 0 394.06722,697.3883L361.42423,732.14113A0.97702,1.05191 0 1 0 362.82105,733.61232L395.43367,698.85949A0.9718,1.04629 0 0 0 394.64416,697.06137z" id="imagebot_166"/>
  <path transform="matrix(2.92087 0 0 2.51418 -499.381 -1160.72)" label="Layer 1" fill="rgb(244, 72, 0)" stroke-width="2" d="M183.29982,697.06137A0.9718,1.04629 0 0 0 182.72288,698.85949L213.60466,732.10844A0.9718,1.04629 0 1 0 214.97111,730.63725L184.08933,697.3883A0.9718,1.04629 0 0 0 183.29982,697.06137z" id="imagebot_165"/>
  <path transform="matrix(2.92087 0 0 2.51418 -499.381 -1160.72)" label="Layer 1" fill="rgb(244, 72, 0)" stroke-width="2" d="M351.58579,654.10255A0.9718,1.04629 0 0 0 350.76592,654.95258C350.76592,654.95258 348.57964,667.90849 347.57753,682.87254C347.07649,690.35455 346.85493,698.3547 347.36497,705.5289C347.87502,712.7031 349.08292,719.05508 351.58579,723.34667A0.9718,1.04629 0 1 0 353.22553,722.2351C351.04343,718.49351 349.8069,712.37773 349.30837,705.36543C348.80984,698.35313 349.02426,690.42003 349.52093,683.00331C350.51428,668.16987 352.67895,655.34489 352.67895,655.34489A0.9718,1.04629 0 0 0 351.58579,654.10255z" id="imagebot_164"/>
  <path fill-rule="evenodd" stroke="#000000" stroke-width="0.036" stroke-miterlimit="10" fill="#ffd4aa" d="M 155.9300582956184 245.25630655083094 C 155.9300582956184 377.1263065508309 243.0490582956184 484.08630655083095 350.5100582956184 484.08630655083095 S 545.0900582956184 377.1263065508309 545.0900582956184 245.25630655083094 C 545.0900582956184 113.35630655083092 457.9700582956184 6.3963065508309285 350.5100582956184 6.3963065508309285 C 243.05005829561838 6.400306550830929 155.9300582956184 113.35630655083092 155.9300582956184 245.25630655083094 L 155.93105829561839 245.25630655083094 L 155.9300582956184 245.25630655083094 z" id="imagebot_92"/>
  <path fill-rule="evenodd" stroke="black" stroke-width="0.036" stroke-miterlimit="10" fill="#7f7f7f" d="M 266.44905829561844 96.0754349687997 C 260.7290582956184 93.91543496879967 255.03905829561836 91.53543496879968 249.38905829561838 88.66043496879968 C 243.54905829561835 85.74443496879968 237.8690582956184 82.75643496879968 232.31905829561833 79.01243496879968 C 226.70905829561843 75.12443496879968 220.04905829561835 70.26443496879966 216.22905829561842 65.83643496879967 C 212.3060582956184 61.336434968799665 209.24605829561847 57.088434968799675 209.42605829561842 52.40743496879969 C 209.53405829561837 47.65543496879968 210.14605829561833 43.624434968799676 217.2390582956184 37.54043496879967 C 224.28905829561836 31.275434968799686 237.7590582956184 22.096434968799684 251.79905829561835 15.687434968799664 C 265.79905829561835 9.279434968799677 283.29905829561835 2.7994349687996873 300.78905829561836 -0.5475650312003211 C 318.28905829561836 -4.039565031200311 337.94905829561844 -4.40056503120033 355.7290582956184 -4.688565031200312 C 373.4790582956184 -5.047565031200321 389.8590582956185 -3.788565031200335 406.1290582956185 -2.3125650312003074 C 422.2190582956184 -0.9445650312003124 437.04905829561835 -0.15256503120031084 451.9890582956184 3.952434968799679 C 467.0090582956184 8.056434968799692 482.94905829561844 15.36343496879968 494.9790582956184 22.132434968799686 C 506.78905829561836 28.828434968799684 515.1390582956183 35.812434968799664 522.4090582956183 43.91243496879969 C 529.5690582956186 51.90343496879967 533.6790582956182 61.91243496879969 537.7790582956184 69.90343496879967 C 541.7790582956184 77.75243496879966 543.6090582956185 83.22343496879967 546.6390582956183 90.89543496879969 C 549.5890582956185 98.48543496879967 553.6190582956183 105.54543496879967 555.4190582956185 115.40543496879968 C 557.0790582956183 125.23543496879967 556.9290582956182 138.7754349687997 556.9290582956182 149.4954349687997 C 556.8590582956185 160.22543496879968 557.0390582956184 169.8754349687997 554.9490582956184 179.1254349687997 C 552.6890582956185 188.23543496879967 547.0290582956184 199.10543496879967 543.8290582956183 204.11543496879972 C 540.6290582956185 208.8954349687997 538.8590582956185 211.41543496879967 535.7690582956184 208.35543496879967 C 532.4890582956184 205.22543496879968 530.4390582956185 197.95543496879964 524.7490582956184 185.57543496879964 C 518.9190582956185 172.97543496879968 511.3990582956185 156.0154349687997 501.4890582956184 133.73543496879967 C 479.3490582956183 134.1254349687997 456.2390582956184 133.04543496879967 430.78905829561836 130.4954349687997 C 405.2290582956184 127.82543496879964 372.3590582956185 122.24543496879971 350.0790582956183 118.17543496879966 C 327.8990582956184 113.96543496879968 312.52905829561837 109.79543496879967 298.55905829561834 106.04543496879967 C 284.4890582956184 102.33543496879969 274.0090582956184 99.06543496879968 266.44905829561844 96.0754349687997 z" id="imagebot_91"/>
  <path stroke="black" stroke-width="0.036" stroke-miterlimit="10" fill-rule="evenodd" d="M 170.6685582956184 199.81380655083092 C 169.4445582956184 194.95380655083093 167.2485582956184 191.49380655083093 163.9365582956184 189.01380655083094 S 156.1605582956184 185.19380655083094 150.9405582956184 185.16380655083094 C 145.5765582956184 185.05380655083093 137.3325582956184 184.87380655083092 132.1845582956184 188.51380655083094 C 126.9285582956184 192.11380655083093 122.7885582956184 198.44380655083094 119.90855829561839 206.54380655083094 C 116.8845582956184 214.53380655083092 114.29255829561839 226.34380655083092 114.6165582956184 236.13380655083094 C 114.9045582956184 245.89380655083093 116.92055829561839 257.27380655083095 122.0685582956184 264.29380655083094 C 127.1445582956184 271.2038065508309 139.0605582956184 275.6338065508309 145.1805582956184 277.03380655083095 C 151.1205582956184 278.15380655083095 154.7205582956184 275.0538065508309 157.9245582956184 271.4938065508309 C 161.0925582956184 267.8938065508309 163.0005582956184 262.59380655083095 163.9365582956184 255.61380655083093 L 170.6685582956184 199.81380655083092 z" id="imagebot_90"/>
  <path fill-rule="evenodd" fill="#ffd4aa" d="M 164.6565582956184 259.71380655083095 C 164.0805582956184 257.8838065508309 163.3605582956184 257.1238065508309 162.4965582956184 257.3038065508309 C 161.6325582956184 257.5538065508309 160.5885582956184 258.71380655083095 159.3645582956184 260.90380655083095 C 157.9245582956184 263.03380655083095 156.3765582956184 267.3138065508309 154.3245582956184 269.58380655083096 C 152.2005582956184 271.67380655083093 150.6165582956184 273.47380655083094 147.3405582956184 273.4338065508309 C 143.9565582956184 273.2538065508309 138.9525582956184 271.4538065508309 134.8485582956184 268.86380655083093 C 130.7085582956184 266.1238065508309 125.6325582956184 262.4938065508309 122.8245582956184 257.8138065508309 C 119.8725582956184 253.06380655083092 118.3245582956184 247.40380655083092 117.7485582956184 240.71380655083092 C 117.4245582956184 239.48380655083093 117.6405582956184 236.68380655083092 118.2525582956184 232.28380655083092 C 118.8645582956184 227.75380655083092 119.8005582956184 219.97380655083091 121.6005582956184 214.25380655083092 C 123.3645582956184 208.34380655083092 125.5965582956184 201.97380655083091 128.5845582956184 197.90380655083092 C 131.5365582956184 193.83380655083093 135.0645582956184 191.28380655083092 139.1685582956184 189.95380655083093 C 143.0565582956184 188.43380655083092 148.7085582956184 188.97380655083091 152.38055829561839 189.23380655083093 C 155.9085582956184 189.41380655083094 158.5725582956184 190.05380655083093 160.8045582956184 191.17380655083093 C 162.9285582956184 192.25380655083092 164.5845582956184 193.69380655083094 165.6285582956184 195.49380655083093 C 166.6725582956184 197.11380655083093 166.3125582956184 200.13380655083094 167.0685582956184 201.25380655083092 C 167.7525582956184 202.29380655083094 168.5805582956184 202.58380655083093 169.6965582956184 201.97380655083091 C 170.7045582956184 201.25380655083092 171.7845582956184 199.99380655083093 173.0805582956184 197.65380655083092 C 170.2725582956184 218.31380655083092 167.4645582956184 239.01380655083094 164.6565582956184 259.71380655083095 z" id="imagebot_89"/>
  <path stroke="black" stroke-width="0.036" stroke-miterlimit="10" fill-rule="evenodd" d="M 159.86855829561839 211.62380655083092 C 159.3645582956184 210.11380655083093 156.7365582956184 207.51380655083094 154.3245582956184 206.33380655083093 C 151.7685582956184 204.99380655083093 148.1325582956184 203.56380655083092 144.9285582956184 204.38380655083094 C 141.5805582956184 205.17380655083093 137.6925582956184 207.08380655083093 135.0645582956184 211.37380655083092 C 132.4005582956184 215.65380655083092 130.0605582956184 223.17380655083093 129.5565582956184 229.65380655083092 C 128.9805582956184 236.06380655083092 129.5925582956184 245.10380655083094 131.9325582956184 249.38380655083094 C 134.2365582956184 253.49380655083093 139.7085582956184 254.57380655083094 143.4885582956184 254.42380655083093 C 147.0885582956184 254.14380655083093 152.5605582956184 249.96380655083092 154.0725582956184 248.16380655083094 C 155.4405582956184 246.29380655083094 154.1805582956184 243.37380655083092 152.38055829561839 243.59380655083092 C 150.5445582956184 243.77380655083093 146.1525582956184 248.66380655083094 143.4885582956184 249.38380655083094 C 140.6445582956184 249.99380655083093 138.0165582956184 249.28380655083092 136.2885582956184 247.22380655083091 C 134.5605582956184 245.03380655083092 133.62455829561839 241.43380655083092 133.62455829561839 236.86380655083093 C 133.5525582956184 232.18380655083092 134.4525582956184 224.22380655083091 136.0365582956184 219.79380655083094 C 137.5125582956184 215.33380655083093 140.35655829561838 211.80380655083093 142.7685582956184 210.18380655083092 C 145.1445582956184 208.42380655083093 147.9885582956184 208.85380655083094 150.4725582956184 209.68380655083092 C 152.8485582956184 210.50380655083092 155.5485582956184 214.54380655083094 157.2045582956184 214.97380655083091 C 158.7165582956184 215.18380655083092 160.3005582956184 213.09380655083092 159.86855829561839 211.62380655083092 z" id="imagebot_88"/>
  <path stroke="black" stroke-width="0.036" stroke-miterlimit="10" fill-rule="evenodd" d="M 535.3515582956184 201.90380655083092 C 536.5315582956184 197.07380655083094 538.7315582956184 193.51380655083094 542.0815582956184 191.06380655083092 C 545.3515582956184 188.54380655083094 549.6715582956184 187.32380655083094 555.0415582956184 187.25380655083092 C 560.3715582956183 187.14380655083093 568.5715582956184 186.96380655083092 573.8315582956184 190.60380655083094 C 579.0115582956184 194.20380655083093 583.0515582956184 200.53380655083092 586.0715582956184 208.63380655083094 C 588.9915582956183 216.62380655083092 591.5815582956184 228.43380655083092 591.3615582956184 238.22380655083091 C 590.9715582956184 247.98380655083093 588.9515582956184 259.36380655083093 583.9115582956184 266.3838065508309 C 578.7315582956184 273.29380655083094 566.7715582956184 277.72380655083094 560.8315582956184 279.1238065508309 C 554.7915582956184 280.23380655083093 551.1915582956184 277.1438065508309 548.0915582956184 273.5738065508309 C 544.8915582956184 269.97380655083094 542.9815582956184 264.6838065508309 542.0815582956184 257.7038065508309 L 535.3515582956184 201.90380655083092 z" id="imagebot_87"/>
  <path fill-rule="evenodd" fill="#ffd4aa" d="M 541.3615582956184 261.8038065508309 C 541.9015582956184 259.97380655083094 542.6215582956183 259.21380655083095 543.5215582956184 259.3938065508309 C 544.2715582956184 259.6438065508309 545.3215582956184 260.79380655083094 546.6515582956184 262.9938065508309 C 548.0515582956184 265.11380655083093 549.6015582956184 269.40380655083095 551.6915582956184 271.67380655083093 C 553.7415582956183 273.7638065508309 555.2915582956184 275.5638065508309 558.6715582956184 275.52380655083095 C 561.9515582956184 275.34380655083095 566.9915582956183 273.54380655083094 571.1715582956184 270.9538065508309 C 575.2015582956184 268.2538065508309 580.3115582956184 264.5138065508309 583.1915582956184 259.86380655083093 C 586.1115582956184 255.07380655083094 587.6215582956183 249.53380655083092 588.2715582956184 242.80380655083093 C 588.5515582956184 241.57380655083094 588.3415582956184 238.77380655083093 587.7615582956184 234.37380655083092 C 587.0415582956184 229.84380655083092 586.1115582956184 222.06380655083092 584.4115582956184 216.34380655083092 C 582.6115582956184 210.43380655083092 580.3815582956184 204.06380655083092 577.4315582956184 199.99380655083093 C 574.3715582956183 195.92380655083093 570.8415582956184 193.37380655083092 566.8515582956184 192.04380655083094 C 562.7815582956184 190.52380655083093 557.2015582956184 191.06380655083092 553.6015582956184 191.32380655083094 C 549.9615582956184 191.50380655083092 547.3015582956184 192.14380655083093 545.1715582956184 193.26380655083094 C 542.9115582956184 194.34380655083092 541.3615582956184 195.78380655083092 540.3915582956184 197.58380655083093 C 539.2315582956184 199.20380655083093 539.6315582956184 202.22380655083091 538.9515582956184 203.34380655083092 C 538.1915582956184 204.38380655083094 537.2515582956185 204.67380655083093 536.2815582956184 204.06380655083092 C 535.2415582956183 203.34380655083092 534.1215582956183 202.08380655083093 532.9315582956184 199.74380655083093 C 535.7415582956183 220.40380655083092 538.5515582956184 241.10380655083094 541.3615582956184 261.8038065508309 z" id="imagebot_86"/>
  <path stroke="black" stroke-width="0.036" stroke-miterlimit="10" fill-rule="evenodd" d="M 546.1515582956184 213.71380655083092 C 546.5815582956184 212.19380655083094 549.1715582956184 209.60380655083094 551.6915582956184 208.41380655083094 C 554.1415582956184 207.08380655083093 557.8115582956184 205.64380655083093 561.0515582956184 206.47380655083091 C 564.3315582956184 207.26380655083094 568.2115582956184 209.17380655083093 570.9115582956184 213.45380655083093 C 573.4315582956184 217.74380655083093 575.8815582956184 225.26380655083094 576.4615582956184 231.74380655083093 C 576.9315582956184 238.15380655083092 576.3515582956184 247.19380655083094 574.0515582956184 251.47380655083091 C 571.6015582956184 255.57380655083094 566.2315582956184 256.65380655083095 562.5315582956184 256.5138065508309 C 558.8215582956184 256.22380655083094 553.3515582956184 252.05380655083093 551.9415582956184 250.25380655083092 C 550.5415582956184 248.37380655083092 551.6915582956184 245.46380655083092 553.6015582956184 245.67380655083093 C 555.3315582956184 245.85380655083094 559.7915582956184 250.75380655083092 562.5315582956184 251.47380655083091 C 565.2315582956184 252.01380655083094 568.0015582956185 251.33380655083093 569.7315582956184 249.27380655083093 C 571.3815582956184 247.04380655083094 572.2115582956184 243.55380655083093 572.3515582956184 238.94380655083094 C 572.2815582956184 234.26380655083094 571.4915582956183 226.31380655083092 569.9815582956184 221.88380655083094 C 568.4315582956184 217.31380655083092 565.5915582956184 213.96380655083092 563.2515582956185 212.23380655083093 C 560.7615582956184 210.43380655083092 557.9215582956184 210.97380655083091 555.5415582956184 211.76380655083094 C 553.0615582956184 212.59380655083092 550.3915582956184 216.62380655083092 548.8115582956184 217.06380655083092 C 547.1915582956184 217.27380655083093 545.6115582956184 215.18380655083092 546.1515582956184 213.71380655083092 z" id="imagebot_85"/>
  <path stroke="black" stroke-width="0.036" stroke-miterlimit="10" fill-rule="evenodd" d="M 318.7015582956184 193.44380655083094 C 318.7015582956184 200.49380655083093 324.4215582956184 206.22380655083091 331.4815582956184 206.22380655083091 C 338.5315582956184 206.22380655083091 344.2615582956184 200.49380655083093 344.2615582956184 193.44380655083094 C 344.2615582956184 186.38380655083094 338.5315582956184 180.66380655083094 331.4815582956184 180.66380655083094 C 324.4215582956184 180.66380655083094 318.7015582956184 186.38380655083094 318.7015582956184 193.44380655083094 z" id="imagebot_84"/>
  <path fill-rule="evenodd" stroke="black" stroke-width="0.036" stroke-miterlimit="10" fill="white" d="M 325.1415582956184 190.09380655083092 C 325.1415582956184 192.00380655083092 326.6915582956184 193.58380655083093 328.6315582956184 193.58380655083093 C 330.5415582956184 193.58380655083093 332.09155829561837 192.00380655083092 332.09155829561837 190.09380655083092 S 330.5415582956184 186.60380655083094 328.6315582956184 186.60380655083094 C 326.6915582956184 186.60380655083094 325.1415582956184 188.18380655083092 325.1415582956184 190.09380655083092 z" id="imagebot_83"/>
  <path stroke="black" stroke-width="0.036" stroke-miterlimit="10" fill-rule="evenodd" d="M 307.0015582956184 159.60380655083094 C 310.4215582956184 158.41380655083094 317.4015582956184 157.44380655083094 322.6915582956184 157.11380655083093 C 327.9115582956184 156.79380655083094 334.1115582956184 157.11380655083093 338.0715582956184 157.94380655083094 C 341.9915582956184 158.73380655083093 345.2315582956184 160.53380655083092 345.7015582956184 161.79380655083094 C 345.9515582956184 162.98380655083093 343.0315582956184 164.71380655083092 339.7215582956184 164.89380655083093 C 336.1915582956184 164.93380655083092 330.1815582956184 162.41380655083094 325.4315582956184 162.33380655083093 C 320.5315582956184 162.23380655083093 315.1315582956184 163.60380655083094 311.4615582956184 164.35380655083094 C 307.7515582956184 165.07380655083094 305.34155829561837 166.66380655083094 303.7915582956184 166.62380655083092 C 302.2515582956184 166.37380655083092 301.4515582956184 164.53380655083092 302.1015582956184 163.35380655083094 C 302.5715582956184 162.08380655083093 303.5115582956184 160.61380655083093 307.0015582956184 159.60380655083094 z" id="imagebot_82"/>
  <path stroke="black" stroke-width="0.036" stroke-miterlimit="10" fill-rule="evenodd" d="M 391.2015582956184 193.44380655083094 C 391.2015582956184 200.49380655083093 385.4815582956184 206.22380655083091 378.4215582956184 206.22380655083091 C 371.3715582956184 206.22380655083091 365.6415582956184 200.49380655083093 365.6415582956184 193.44380655083094 C 365.6415582956184 186.38380655083094 371.3715582956184 180.66380655083094 378.4215582956184 180.66380655083094 C 385.4815582956184 180.66380655083094 391.2015582956184 186.38380655083094 391.2015582956184 193.44380655083094 z" id="imagebot_81"/>
  <path fill-rule="evenodd" stroke="black" stroke-width="0.036" stroke-miterlimit="10" fill="white" d="M 381.0515582956184 189.84380655083092 C 381.0515582956184 191.75380655083092 379.4715582956184 193.33380655083093 377.5615582956184 193.33380655083093 S 374.0715582956184 191.75380655083092 374.0715582956184 189.84380655083092 S 375.6515582956184 186.38380655083094 377.5615582956184 186.38380655083094 S 381.0515582956184 187.93380655083092 381.0515582956184 189.84380655083092 z" id="imagebot_80"/>
  <path stroke="black" stroke-width="0.036" stroke-miterlimit="10" fill-rule="evenodd" d="M 404.8115582956184 161.87380655083092 C 401.6115582956184 160.28380655083092 395.4915582956184 158.27380655083093 390.7715582956184 157.33380655083093 C 385.9515582956184 156.29380655083094 380.2915582956184 155.82380655083094 376.7315582956184 156.07380655083094 C 373.0615582956184 156.36380655083093 369.8515582956184 157.55380655083093 369.4615582956184 158.81380655083092 C 369.1015582956184 159.92380655083093 371.4815582956184 162.01380655083094 374.6415582956184 162.69380655083094 C 377.7815582956184 163.13380655083094 383.4315582956184 161.58380655083093 387.8615582956184 162.08380655083093 C 392.1015582956184 162.55380655083093 397.1115582956184 164.78380655083092 400.3815582956184 166.01380655083094 C 403.5515582956184 167.12380655083092 405.6815582956184 169.17380655083093 407.1515582956184 169.25380655083092 C 408.59155829561837 169.21380655083092 409.2415582956184 167.52380655083093 408.9515582956184 166.26380655083094 C 408.59155829561837 165.00380655083092 407.7315582956184 163.31380655083092 404.8115582956184 161.87380655083092 z" id="imagebot_79"/>
  <path stroke="black" stroke-width="0.036" stroke-miterlimit="10" fill-rule="evenodd" d="M 349.5515582956184 395.58380655083096 C 339.9015582956184 394.5738065508309 336.0515582956184 394.86380655083093 325.0315582956184 391.5138065508309 C 313.9815582956184 388.09380655083095 296.1615582956184 382.33380655083096 283.9215582956184 375.4538065508309 C 271.7215582956184 368.5138065508309 262.0715582956184 360.9538065508309 252.3515582956184 350.40380655083095 C 242.6715582956184 339.78380655083095 232.48155829561838 325.3138065508309 226.2115582956184 312.5638065508309 C 219.9515582956184 299.78380655083095 216.3115582956184 287.29380655083094 215.0515582956184 274.4438065508309 C 214.8715582956184 271.8138065508309 215.5915582956184 269.40380655083095 217.2115582956184 266.8138065508309 C 218.8015582956184 264.1838065508309 224.1315582956184 260.9438065508309 224.5915582956184 259.17380655083093 C 224.9215582956184 257.41380655083094 222.1115582956184 254.75380655083092 219.6615582956184 256.1938065508309 C 217.1415582956184 257.6338065508309 212.2125582956184 262.09380655083095 209.8725582956184 267.35380655083094 C 207.3885582956184 272.42380655083093 205.9845582956184 281.78380655083095 205.5165582956184 286.6838065508309 C 205.0485582956184 291.5038065508309 206.5605582956184 294.8138065508309 207.4245582956184 296.22380655083094 C 208.2525582956184 297.5538065508309 209.7645582956184 297.0538065508309 210.4125582956184 294.5638065508309 C 210.9165582956184 292.0138065508309 211.0605582956184 287.47380655083094 210.7005582956184 280.9538065508309 C 213.11255829561838 293.6338065508309 217.4715582956184 306.1938065508309 224.3115582956184 319.08380655083096 C 231.0715582956184 331.9338065508309 239.4615582956184 346.6238065508309 250.98155829561838 357.7438065508309 C 262.5415582956184 368.72380655083094 279.5315582956184 378.23380655083093 292.3815582956184 384.71380655083095 C 305.0215582956184 391.04380655083094 316.9715582956184 393.27380655083095 326.1515582956184 395.8738065508309 C 335.1515582956184 398.35380655083094 339.4015582956184 398.9338065508309 346.2715582956184 399.6838065508309 C 353.1115582956184 400.29380655083094 360.0615582956184 400.29380655083094 366.9715582956184 399.6838065508309 C 373.8515582956184 398.9338065508309 378.0315582956184 398.35380655083094 387.1315582956184 395.8738065508309 C 396.2115582956184 393.27380655083095 408.1615582956184 391.04380655083094 420.9015582956184 384.71380655083095 C 433.5415582956184 378.23380655083093 450.7115582956184 368.72380655083094 462.2715582956184 357.7438065508309 C 473.6415582956184 346.6238065508309 482.1715582956184 331.9338065508309 488.9815582956184 319.08380655083096 C 495.7515582956184 306.1938065508309 500.1415582956184 293.6338065508309 502.59155829561837 280.9538065508309 C 502.2315582956184 287.47380655083094 502.2615582956184 292.0138065508309 502.84155829561837 294.5638065508309 C 503.3815582956184 297.0538065508309 504.9315582956184 297.5538065508309 505.8315582956184 296.22380655083094 C 506.6215582956184 294.8138065508309 508.09155829561837 291.5038065508309 507.7315582956184 286.6838065508309 C 507.1915582956184 281.78380655083095 505.7915582956184 272.42380655083093 503.3815582956184 267.35380655083094 C 500.9715582956184 262.09380655083095 496.0315582956184 257.6338065508309 493.59155829561837 256.1938065508309 C 491.0315582956184 254.75380655083092 488.2915582956184 257.41380655083094 488.6915582956184 259.17380655083093 C 489.1215582956184 260.9438065508309 494.3115582956184 264.1838065508309 496.0315582956184 266.8138065508309 C 497.5515582956184 269.40380655083095 498.4115582956184 271.8138065508309 498.2315582956184 274.4438065508309 C 496.9715582956184 287.29380655083094 493.3015582956184 299.78380655083095 487.0715582956184 312.5638065508309 C 480.7715582956184 325.3138065508309 470.6215582956184 339.78380655083095 460.9315582956184 350.40380655083095 C 451.2115582956184 360.9538065508309 441.5315582956184 368.5138065508309 429.3315582956184 375.4538065508309 C 417.09155829561837 382.33380655083096 399.2715582956184 388.09380655083095 388.2215582956184 391.5138065508309 C 377.2015582956184 394.86380655083093 373.3815582956184 394.5738065508309 363.7015582956184 395.58380655083096 C 354.0515582956184 396.6238065508309 359.2315582956184 396.6238065508309 349.5515582956184 395.58380655083096 z" id="imagebot_78"/>
  <path fill-rule="evenodd" stroke="black" stroke-width="0.036" stroke-miterlimit="10" fill="#7f7f7f" d="M 219.6090582956184 59.450806550830926 C 216.4090582956184 56.93080655083093 211.8020582956184 53.79880655083093 207.3380582956184 52.97180655083093 C 202.8740582956184 51.89180655083093 198.2300582956184 50.523806550830926 192.7220582956184 54.01580655083093 C 186.8900582956184 57.61580655083093 179.9060582956184 65.10380655083092 173.7140582956184 74.39180655083094 C 167.4860582956184 83.57380655083092 160.2140582956184 97.82380655083092 156.1820582956184 108.98380655083093 C 152.0780582956184 120.07380655083092 150.9620582956184 129.90380655083092 149.7740582956184 140.70380655083093 C 148.55005829561838 151.39380655083093 148.55005829561838 165.22380655083091 149.0900582956184 172.99380655083093 C 149.5220582956184 180.66380655083094 150.0980582956184 185.77380655083093 152.7620582956184 186.78380655083092 C 155.28205829561838 187.68380655083092 159.6380582956184 185.02380655083093 164.4620582956184 178.64380655083093 C 169.2500582956184 172.06380655083092 175.9820582956184 157.73380655083093 181.4540582956184 148.44380655083094 C 186.7460582956184 139.22380655083091 189.9860582956184 131.95380655083093 196.57405829561839 123.56380655083093 C 203.0900582956184 115.07380655083092 214.9690582956184 105.06380655083093 220.5490582956184 97.97380655083093 C 225.8790582956184 90.73380655083093 228.4290582956184 85.91380655083093 229.3290582956184 80.87380655083093 C 230.1590582956184 75.79480655083093 227.6790582956184 71.54680655083092 226.0590582956184 67.98280655083093 C 224.3290582956184 64.31080655083093 222.7790582956184 61.93480655083093 219.6090582956184 59.450806550830926 z" id="imagebot_77"/>
  <path stroke="black" stroke-width="0.036" stroke-miterlimit="10" fill-rule="evenodd" d="M 208.9725582956184 72.01480655083093 C 207.3165582956184 77.19380655083093 205.2645582956184 85.19380655083093 201.0165582956184 92.64380655083093 C 196.6965582956184 99.98380655083093 189.1725582956184 107.72380655083093 183.7005582956184 115.71380655083092 C 178.1205582956184 123.63380655083093 171.6405582956184 130.62380655083092 168.1485582956184 139.73380655083093 C 164.5845582956184 148.73380655083093 162.85655829561838 164.53380655083092 162.6765582956184 169.25380655083092 C 162.3885582956184 173.82380655083094 165.4485582956184 171.44380655083094 166.7085582956184 167.12380655083092 C 167.8965582956184 162.52380655083093 166.9605582956184 150.35380655083094 169.8765582956184 142.86380655083093 C 172.6845582956184 135.41380655083094 179.2365582956184 128.82380655083094 183.5565582956184 122.81380655083093 C 187.8045582956184 116.87380655083093 191.1525582956184 112.80380655083093 195.4005582956184 107.11380655083093 C 199.61255829561838 101.13380655083093 205.2645582956184 94.69380655083093 208.61255829561838 87.92380655083093 C 211.7445582956184 81.12380655083093 214.1205582956184 71.69180655083093 214.3725582956184 67.26380655083094 C 214.5915582956184 62.834806550830926 210.88055829561839 61.03480655083093 210.0525582956184 61.86380655083093 C 209.1165582956184 62.69080655083093 210.3765582956184 66.72280655083092 208.9725582956184 72.01480655083093 z" id="imagebot_76" fill="#cccccc"/>
  <path stroke="black" stroke-width="0.036" stroke-miterlimit="10" fill-rule="evenodd" d="M 253.7915582956184 22.946806550830928 C 266.8215582956184 20.89480655083093 305.2015582956184 14.630806550830929 334.0715582956184 13.586806550830929 C 362.8315582956184 12.39880655083093 398.5115582956184 14.342806550830929 425.1515582956184 16.358806550830927 C 451.7515582956184 18.48280655083093 479.1515582956184 22.91080655083093 492.1815582956184 25.754806550830928 C 504.8215582956184 28.382806550830928 502.2315582956184 31.658806550830928 501.3615582956184 32.12680655083093 C 500.5015582956184 32.41480655083093 497.9815582956184 29.786806550830928 486.8515582956184 27.84280655083093 C 475.4115582956184 25.71880655083093 456.9715582956184 22.11880655083093 433.9015582956184 20.103806550830928 C 410.5715582956184 18.050806550830927 373.8115582956184 15.458806550830928 349.0515582956184 15.67480655083093 C 324.3515582956184 15.746806550830929 302.4315582956184 19.27580655083093 287.0215582956184 21.00280655083093 C 271.6115582956184 22.658806550830928 262.7915582956184 25.286806550830928 257.2515582956184 25.68380655083093 C 251.6315582956184 25.934806550830928 240.9415582956184 24.925806550830927 253.7915582956184 22.946806550830928 z" id="imagebot_75" fill="#cccccc"/>
  <path stroke="black" stroke-width="0.036" stroke-miterlimit="10" fill-rule="evenodd" d="M 250.0515582956184 32.62980655083093 C 264.4115582956184 35.79780655083093 302.3215582956184 46.81480655083093 330.5815582956184 52.898806550830926 C 358.84155829561837 58.76680655083093 394.6615582956184 64.99480655083093 418.3115582956184 67.98280655083093 C 441.8215582956184 70.89880655083093 455.4615582956184 71.11480655083093 470.9115582956184 70.43080655083092 C 486.1715582956184 69.63880655083094 502.3015582956184 64.81480655083092 510.0015582956184 63.73480655083093 C 517.6015582956184 62.654806550830926 517.6415582956184 62.87080655083093 516.6315582956184 63.84180655083093 C 515.5115582956184 64.74180655083093 511.84155829561837 66.97480655083093 503.6715582956184 68.88180655083093 C 495.2815582956184 70.68280655083093 483.6515582956184 74.46180655083093 467.2715582956184 74.78580655083093 C 450.7815582956184 74.93080655083092 427.1715582956184 73.09480655083092 405.8615582956184 70.39380655083093 C 384.4415582956184 67.69380655083093 364.4915582956184 64.02180655083093 340.1915582956184 58.83680655083093 C 315.7515582956184 53.47380655083093 276.9815582956184 43.17780655083093 260.9615582956184 39.03680655083093 C 245.0415582956184 34.82480655083093 246.9515582956184 35.36480655083093 245.1515582956184 34.28480655083093 C 243.2415582956184 33.133806550830926 235.7515582956184 29.53480655083093 250.0515582956184 32.62980655083093 z" id="imagebot_74" fill="#cccccc"/>
  <path stroke="black" stroke-width="0.036" stroke-miterlimit="10" fill-rule="evenodd" d="M 240.8715582956184 48.79380655083093 C 254.6915582956184 52.89780655083093 294.9715582956184 69.49380655083093 322.5515582956184 77.05380655083093 C 350.0515582956184 84.43380655083092 380.2915582956184 89.72380655083093 404.5215582956184 92.93380655083092 C 428.6115582956184 95.91380655083093 448.1215582956184 95.48380655083093 465.9715582956184 95.52380655083093 C 483.6915582956184 95.48380655083093 502.3315582956184 92.67380655083093 510.2515582956184 92.93380655083092 C 518.0315582956184 93.00380655083093 518.9315582956184 95.34380655083093 512.3815582956184 96.49380655083093 C 505.5015582956184 97.50380655083093 488.6915582956184 99.69380655083093 470.2915582956184 99.62380655083093 C 451.7215582956184 99.51380655083094 425.8015582956184 98.58380655083093 402.6915582956184 95.99380655083093 C 379.5015582956184 93.14380655083093 355.6315582956184 88.97380655083093 333.0315582956184 83.46380655083092 C 310.4515582956184 77.84380655083093 283.8915582956184 68.23380655083093 268.4415582956184 63.08580655083093 C 252.9315582956184 57.97480655083093 245.3715582956184 55.05880655083093 240.76155829561839 52.78980655083093 C 236.0815582956184 50.30680655083093 227.1915582956184 44.76280655083093 240.8715582956184 48.79380655083093 z" id="imagebot_73" fill="#cccccc"/>
  <path stroke="black" stroke-width="0.036" stroke-miterlimit="10" fill-rule="evenodd" d="M 532.5715582956184 146.49380655083093 C 534.5215582956184 150.35380655083094 538.7315582956184 159.06380655083092 540.2115582956184 163.45380655083093 C 541.5015582956185 167.73380655083093 541.3615582956184 171.80380655083093 540.8915582956184 172.31380655083092 C 540.3915582956184 172.67380655083093 539.6715582956184 170.58380655083093 537.4715582956184 166.04380655083094 C 535.2015582956184 161.36380655083093 530.9915582956183 152.29380655083094 527.3215582956184 145.05380655083093 C 523.4015582956184 137.78380655083092 516.9515582956184 127.59380655083093 514.9415582956184 123.09380655083093 C 512.9615582956184 118.59380655083093 514.5815582956184 117.12380655083093 515.9115582956184 118.27380655083093 C 517.3115582956184 119.35380655083092 520.4815582956184 125.72380655083093 522.7815582956184 129.47380655083091 C 524.9415582956184 133.17380655083093 526.9315582956184 137.21380655083092 528.7215582956184 140.19380655083094 C 530.2015582956184 142.97380655083091 530.7415582956183 142.61380655083093 532.5715582956184 146.49380655083093 z" id="imagebot_72" fill="#cccccc"/>
  <title/>
  <metadata id="imagebot_71">image/svg+xmllogoabril 2011M Mlogolentesglassesverdeblancogrisnegrologo de un website</metadata>
  <metadata id="imagebot_70">image/svg+xml</metadata>
  <path d="M436.78803,395.40782L440.39029,370.91247L430.30395,332.00808L413.73357,306.07181L382.75415,293.82414L353.21563,292.38324L321.51575,300.3082L304.94536,314.71724L294.1386,349.29892L294.85905,382.4397L305.66581,407.65551L311.42944,417.74184L335.20433,429.26906L361.1406,434.31223L397.88364,427.1077L425.2608,407.65551L436.78803,395.40782z" stroke-width="1px" stroke="rgb(0, 0, 0)" fill="url(#imagebot_65)" id="imagebot_69" transform="translate(-0.000311704 -0.00000344917) matrix(-0.603213 0 0 0.603213 516.676 7.4978)"/>
  <path fill="#000000" stroke="#000000" stroke-width="3" stroke-dasharray="null" id="imagebot_68" d="M217.25253,270.78552L196.35787,233.27775L233.92714,270.78552L196.35787,308.29328L217.25253,270.78552z" transform="rotate(270.735 350.169 220.745) matrix(0.568244 0 0 0.568244 227.916 66.8726)"/>
  <path fill="#000000" stroke="#000000" stroke-width="3" stroke-dasharray="null" stroke-linejoin="null" stroke-linecap="null" stroke-opacity="null" id="imagebot_67" d="M185.02236,95.99379L157.10059,-13.0901L207.30482,95.99379L157.10059,205.07761L185.02236,95.99379z" transform="rotate(255.939 493.809 188.919) matrix(0.568244 0 0 0.568244 390.273 134.371)"/>
  <path fill="#000000" stroke="#000000" stroke-width="3" stroke-dasharray="null" stroke-linejoin="null" stroke-linecap="null" stroke-opacity="null" d="M185.02236,95.99379L157.10059,-13.0901L207.30482,95.99379L157.10059,205.07761L185.02236,95.99379z" transform="rotate(105.219 209.433 185.792) matrix(-0.568244 0 0 0.568244 312.968 131.246)" id="imagebot_66"/>
  <path d="M436.78803,395.40782L440.39029,370.91247L430.30395,332.00808L413.73357,306.07181L382.75415,293.82414L353.21563,292.38324L321.51575,300.3082L304.94536,314.71724L294.1386,349.29892L294.85905,382.4397L305.66581,407.65551L311.42944,417.74184L335.20433,429.26906L361.1406,434.31223L397.88364,427.1077L425.2608,407.65551L436.78803,395.40782z" stroke-width="1px" stroke="rgb(0, 0, 0)" fill="url(#imagebot_65)" transform="translate(-0.000311704 -0.00000344917) matrix(0.603213 0 0 0.603213 189.224 7.4978)" id="imagebot_64"/>
  <metadata id="imagebot_63">image/svg+xml</metadata>
  <metadata id="imagebot_62">image/svg+xml</metadata>
  <g display="inline" transform="translate(2040.86 238.419) matrix(9.35489 0 0 9.35489 -999.448 72.5461)" label="hi" id="imagebot_61"/>
  <path transform="translate(9.53674 -9.53674) matrix(9.35489 0 0 9.35489 -188.681 -49.9745)" fill="#7f3f00" fill-rule="evenodd" stroke="rgb(0, 0, 0)" stroke-width="1px" stroke-linejoin="round" id="imagebot_60" d="M35.43985,107.46405C49.01888,110.91992 62.18487,109.41947 75.26577,106.89781L76.20951,112.37151C63.5251,114.90956 50.24697,116.0227 35.06236,112.56026L35.43985,107.46405z"/>
  <path transform="translate(0 -19.0735) matrix(9.35489 0 0 9.35489 -179.141 -45.2055)" fill="rgb(63, 113, 178)" fill-rule="evenodd" stroke="rgb(0, 0, 0)" stroke-width="1px" stroke-linejoin="round" id="imagebot_59" d="M43.29994,108.71255C42.54331,111.07043 42.07658,113.69525 42.63261,115.78621L45.56885,116.05314C45.1394,113.33752 45.51686,111.93822 45.83578,108.84602L43.29994,108.71255z"/>
  <path transform="translate(0 -19.0735) matrix(9.35489 0 0 9.35489 -169.611 -49.9745)" fill="rgb(63, 113, 178)" fill-rule="evenodd" stroke="rgb(0, 0, 0)" stroke-width="1px" stroke-linejoin="round" d="M67.92295,108.5281C68.47609,110.94183 68.71764,113.59686 67.98561,115.63289L65.03731,115.64886C65.6964,112.97966 65.43945,111.55331 65.38495,108.44518L67.92295,108.5281z" id="imagebot_58"/>
  <path transform="translate(0 -28.6102) matrix(9.35489 0 0 9.35489 -169.611 -35.6695)" fill="rgb(186, 189, 182)" fill-rule="evenodd" stroke="rgb(0, 0, 0)" stroke-width="0.52541" stroke-linecap="round" stroke-linejoin="round" stroke-miterlimit="4" stroke-dashoffset="0pt" id="imagebot_57" d="M51.79227,108.1435L51.79227,116.0794L59.75552,116.0794L59.75552,108.1435L51.79227,108.1435zM53.34871,109.7206L58.19907,109.7206L58.33254,111.04421L55.78757,110.93475L54.96663,111.89253L55.89704,112.68612L58.33254,112.60402L58.33254,114.43749L53.21525,114.43749L53.34871,109.7206z"/>
  <metadata id="imagebot_56">image/svg+xml</metadata>
  <g id="imagebot_55" label="hi" transform="translate(0 -9.53674) matrix(9.30126 0 0 9.30126 585.104 105.725)" display="inline"/>
  <g label="clothes" display="inline" stroke="rgb(0, 0, 0)" transform="translate(-1182.56 300.407) matrix(9.3166 0.845503 -0.845503 9.3166 970.12 -365.852)" id="imagebot_10">
   <path fill="#005fbf" fill-rule="evenodd" stroke="rgb(0, 0, 0)" stroke-width="1px" d="M51.33192,69.62241L61.52433,69.81116L61.71308,78.11609L56.23938,81.32481C56.23938,81.32481 51.14317,78.87108 51.14317,77.92734C51.14317,76.9836 51.33192,69.24492 51.33192,69.62241z" id="imagebot_52"/>
   <path fill="#005fbf" fill-rule="evenodd" stroke="rgb(0, 0, 0)" stroke-width="1px" stroke-linecap="round" d="M51.14317,73.01988L61.71308,73.01988" id="imagebot_48"/>
  </g>

  <metadata id="imagebot_133">image/svg+xml</metadata>

  <metadata fill-rule="evenodd" clip-rule="evenodd" id="imagebot_331"/>
 </g>
 <metadata>image/svg+xmlOpenclipartMan Face Cartoon2006-10-18T11:25:29Uploaded by "World Label" for conversion to SVG and publication on OCAL.https://openclipart.org/detail/736/man-face-cartoon-by-gerald_g-736Gerald_Gcartoonexternalsourcefacemanpeopleremixworldlabel</metadata>
</svg>