<?xml version="1.0" encoding="UTF-8" standalone="no"?>
<!-- Created with Inkscape (http://www.inkscape.org/) -->

<svg
   xmlns:dc="http://purl.org/dc/elements/1.1/"
   xmlns:cc="http://creativecommons.org/ns#"
   xmlns:rdf="http://www.w3.org/1999/02/22-rdf-syntax-ns#"
   xmlns:svg="http://www.w3.org/2000/svg"
   xmlns="http://www.w3.org/2000/svg"
   xmlns:sodipodi="http://sodipodi.sourceforge.net/DTD/sodipodi-0.dtd"
   xmlns:inkscape="http://www.inkscape.org/namespaces/inkscape"
   id="svg2"
   version="1.1"
   inkscape:version="0.91 r13725"
   xml:space="preserve"
   width="688.9375"
   height="810"
   viewBox="0 0 688.93751 810"
   sodipodi:docname="publicdomainq-grandfather-energy.svg"
   inkscape:export-filename="/media/sdb1/_GRAFIKA/Publicdomainq/lidi/publicdomainq-grandfather-energy.png"
   inkscape:export-xdpi="88.984169"
   inkscape:export-ydpi="88.984169"><title
     id="title7699">Grandfather - full of energy</title><metadata
     id="metadata8"><rdf:RDF><cc:Work
         rdf:about=""><dc:format>image/svg+xml</dc:format><dc:type
           rdf:resource="http://purl.org/dc/dcmitype/StillImage" /><dc:title>Grandfather - full of energy</dc:title><cc:license
           rdf:resource="http://creativecommons.org/publicdomain/zero/1.0/" /><dc:subject><rdf:Bag><rdf:li>man</rdf:li><rdf:li>male</rdf:li><rdf:li>senior</rdf:li><rdf:li>old</rdf:li><rdf:li>energy</rdf:li><rdf:li>happy</rdf:li><rdf:li>enthusiastic</rdf:li><rdf:li>age</rdf:li><rdf:li>publicdomainq.net</rdf:li></rdf:Bag></dc:subject><dc:description>This image was adapted from a picture posted to publicdomainq.net. All of the images on these sites are in the public domain i.e. CC0. This site is only in Japanese but can be easily navigated with Google Translate.</dc:description></cc:Work><cc:License
         rdf:about="http://creativecommons.org/publicdomain/zero/1.0/"><cc:permits
           rdf:resource="http://creativecommons.org/ns#Reproduction" /><cc:permits
           rdf:resource="http://creativecommons.org/ns#Distribution" /><cc:permits
           rdf:resource="http://creativecommons.org/ns#DerivativeWorks" /></cc:License></rdf:RDF></metadata><defs
     id="defs6"><clipPath
       clipPathUnits="userSpaceOnUse"
       id="clipPath58"><path
         d="M 248.324,1461.59 C 126.266,1426.93 127.109,1220.15 127.109,1220.15 128.004,1110.01 139.297,920.891 208.629,851.066 277.488,781.75 343.082,748.82 400.598,733.75 c 0,0 71.066,-21.051 138.136,4.621 56.399,18.891 119.641,56.09 183.711,129.902 70.293,80.997 62.305,300.467 54.805,400.977 -2.207,29.79 -19.727,63.35 -27.156,71.62 -108.156,120.31 -110.422,196.84 -110.422,196.84 l -14.07,-18.1 c -25.891,-27.68 -74.395,-55.98 -164.289,-72.31 0,0 28.632,110.96 53.828,131.22 0,0 -108.278,-147.61 -291.328,-187.67 0,0 4.953,25.09 18.875,58.15 l 5.636,12.59 z"
         id="path60"
         inkscape:connector-curvature="0" /></clipPath><linearGradient
       x1="0"
       y1="0"
       x2="1"
       y2="0"
       gradientUnits="userSpaceOnUse"
       gradientTransform="matrix(-1.44e-5,329.108,329.108,1.44e-5,454.57,998.091)"
       spreadMethod="pad"
       id="linearGradient62"><stop
         style="stop-opacity:1;stop-color:#fcd0b4"
         offset="0"
         id="stop64" /><stop
         style="stop-opacity:1;stop-color:#f7918c"
         offset="1"
         id="stop66" /></linearGradient></defs><sodipodi:namedview
     pagecolor="#ffffff"
     bordercolor="#666666"
     borderopacity="1"
     objecttolerance="10"
     gridtolerance="10"
     guidetolerance="10"
     inkscape:pageopacity="0"
     inkscape:pageshadow="2"
     inkscape:window-width="1920"
     inkscape:window-height="1125"
     id="namedview4"
     showgrid="false"
     inkscape:zoom="0.78533139"
     inkscape:cx="347.20187"
     inkscape:cy="456.86206"
     inkscape:window-x="0"
     inkscape:window-y="0"
     inkscape:window-maximized="1"
     inkscape:current-layer="svg2"
     fit-margin-top="5"
     fit-margin-left="5"
     fit-margin-bottom="5"
     fit-margin-right="5" /><g
     id="g12"
     transform="matrix(0.51009869,0,0,-0.51009869,5.0785367,804.94944)"><path
       d="m 792.188,609.227 c 46.296,-12.649 104.335,-27.676 144.816,-42.055 40.672,-14.481 68.606,-42.043 107.786,-115.57 16.16,-30.364 59.36,-126.34 59.36,-126.34 l 3.61,17.84 c 2.8,39.738 5.96,67.257 8.35,97.949 l 104.55,-61.442 c 2.16,-82.449 2.7,-169.32 -6.17,-204.371 -20.38,-80.4685 -67.85,-91.7575 -114.23,-56.109 -53.8,41.402 -150.69,166.391 -150.69,166.391 L 915.461,7 415.273,7 385.422,278.109 c 0,0.84 -95.859,-117.058 -149.652,-158.449 -46.356,-35.6405 -93.856,-24.3397 -114.227,56.129 -8.855,35.012 -8.352,121.91 -6.172,204.34 l 104.551,61.43 c 2.391,-30.649 5.566,-58.161 8.348,-97.938 l 3.593,-17.832 c 0,0 43.227,95.961 59.407,126.359 39.168,73.5 66.574,100.543 107.226,115.024 40.469,14.379 98.508,29.406 144.817,42.055"
       style="fill:#bfb290;fill-opacity:1;fill-rule:nonzero;stroke:none"
       id="path14"
       inkscape:connector-curvature="0" /><path
       d="m 126.563,762.918 c 0,0 40.156,0.781 71.464,-26.789 29.231,-25.75 54.942,-62.137 43.711,-74.793 -10.09,-11.309 -33.144,-4.797 -33.144,-4.797"
       style="fill:#fcd0b4;fill-opacity:1;fill-rule:nonzero;stroke:none"
       id="path16"
       inkscape:connector-curvature="0" /><path
       d="m 1206.26,762.398 c 0,0 -40.16,0.762 -71.49,-26.785 -29.2,-25.754 -54.93,-62.16 -43.7,-74.816 10.07,-11.297 33.17,-4.774 33.17,-4.774"
       style="fill:#fcd0b4;fill-opacity:1;fill-rule:nonzero;stroke:none"
       id="path18"
       inkscape:connector-curvature="0" /><path
       d="m 220.984,431.25 c 0,0 -38.406,-95.148 -104.507,-60.078 l -1.106,8.957 c 1.719,65.242 4.5,118.82 4.5,118.82 l -6.648,7.84 C 75.6055,545.75 -9.20703,656.266 9.61719,698.941 33.1445,752.223 98.6719,781.453 127.793,761.5 c 54.375,-37.254 90.82,-121.484 90.957,-150.184 0.156,-28.671 -20.195,-43.925 -20.195,-43.925 0,0 35.879,-29.821 17.656,-79.161 0,0 1.516,-18.8 3.711,-46.671 l 1.062,-10.309"
       style="fill:#fcd0b4;fill-opacity:1;fill-rule:nonzero;stroke:none"
       id="path20"
       inkscape:connector-curvature="0" /><path
       d="m 1115.06,430.73 c 0,0 38.41,-95.171 104.51,-60.101 l 1.09,8.98 c -1.72,65.219 -4.5,118.789 -4.5,118.789 l 6.64,7.864 c 37.64,38.937 120.3,150.347 101.46,193.031 -23.52,53.293 -86.89,81.641 -116.01,61.68 -54.38,-37.266 -90.85,-121.512 -90.96,-150.184 -0.13,-28.652 20.21,-43.937 20.21,-43.937 0,0 -35.91,-29.813 -17.66,-79.153 0,0 -1.53,-18.789 -3.73,-46.648 l -1.05,-10.321"
       style="fill:#fcd0b4;fill-opacity:1;fill-rule:nonzero;stroke:none"
       id="path22"
       inkscape:connector-curvature="0" /><path
       d="m 612.473,111.191 c -77.082,0 -150.09,12.981 -215.278,36.137 L 418.074,7 l 496.66,0 28.75,197.398 C 855.422,146.43 739.551,111.191 612.473,111.191"
       style="fill:#afa480;fill-opacity:1;fill-rule:nonzero;stroke:none"
       id="path24"
       inkscape:connector-curvature="0" /><path
       d="M 609.813,632.117 C 587.004,619.09 468.816,592.164 398.496,567.172 357.844,552.691 323.594,522.891 284.805,442.031 269.91,410.949 231.863,325.789 231.863,325.789"
       style="fill:none;stroke:#231f20;stroke-width:14;stroke-linecap:round;stroke-linejoin:round;stroke-miterlimit:10;stroke-dasharray:none;stroke-opacity:1"
       id="path26"
       inkscape:connector-curvature="0" /><path
       d="M 367.402,441.648 415.273,7"
       style="fill:none;stroke:#231f20;stroke-width:14;stroke-linecap:round;stroke-linejoin:round;stroke-miterlimit:10;stroke-dasharray:none;stroke-opacity:1"
       id="path28"
       inkscape:connector-curvature="0" /><path
       d="M 965.508,441.648 917.645,7"
       style="fill:none;stroke:#231f20;stroke-width:14;stroke-linecap:round;stroke-linejoin:round;stroke-miterlimit:10;stroke-dasharray:none;stroke-opacity:1"
       id="path30"
       inkscape:connector-curvature="0" /><path
       d="m 128.547,491.328 c 0,0 -142.4454,154.313 -118.92981,207.613 23.52731,53.282 89.05471,82.512 118.17581,62.559 54.375,-37.254 90.82,-121.484 90.957,-150.184 0.156,-28.671 -20.195,-43.925 -20.195,-43.925 0,0 35.879,-29.821 17.656,-79.161 0,0 17.336,-193.32 21.309,-255.152"
       style="fill:none;stroke:#231f20;stroke-width:14;stroke-linecap:round;stroke-linejoin:round;stroke-miterlimit:10;stroke-dasharray:none;stroke-opacity:1"
       id="path32"
       inkscape:connector-curvature="0" /><path
       d="m 166.27,574.645 c 0,0 27.597,36.183 25.976,58.605"
       style="fill:none;stroke:#231f20;stroke-width:14;stroke-linecap:round;stroke-linejoin:round;stroke-miterlimit:10;stroke-dasharray:none;stroke-opacity:1"
       id="path34"
       inkscape:connector-curvature="0" /><path
       d="m 177.141,583.805 c 0,0 1.238,-20.067 19.656,-17.426"
       style="fill:none;stroke:#231f20;stroke-width:14;stroke-linecap:round;stroke-linejoin:round;stroke-miterlimit:10;stroke-dasharray:none;stroke-opacity:1"
       id="path36"
       inkscape:connector-curvature="0" /><path
       d="m 127.637,630.738 c 0,0 27.715,36.817 61.965,53.879"
       style="fill:none;stroke:#231f20;stroke-width:14;stroke-linecap:round;stroke-linejoin:round;stroke-miterlimit:10;stroke-dasharray:none;stroke-opacity:1"
       id="path38"
       inkscape:connector-curvature="0" /><path
       d="m 93.4375,655.73 c 0,0 35.6255,50.262 75.3245,63.055"
       style="fill:none;stroke:#231f20;stroke-width:14;stroke-linecap:round;stroke-linejoin:round;stroke-miterlimit:10;stroke-dasharray:none;stroke-opacity:1"
       id="path40"
       inkscape:connector-curvature="0" /><path
       d="m 52.0977,693.504 c 0,0 39.2109,48.582 87.5973,57.117"
       style="fill:none;stroke:#231f20;stroke-width:14;stroke-linecap:round;stroke-linejoin:round;stroke-miterlimit:10;stroke-dasharray:none;stroke-opacity:1"
       id="path42"
       inkscape:connector-curvature="0" /><path
       d="m 126.563,762.918 c 0,0 40.156,0.781 71.464,-26.789 29.231,-25.75 54.942,-62.137 43.711,-74.793 -10.09,-11.309 -33.144,-4.797 -33.144,-4.797"
       style="fill:none;stroke:#231f20;stroke-width:14;stroke-linecap:round;stroke-linejoin:round;stroke-miterlimit:10;stroke-dasharray:none;stroke-opacity:1"
       id="path44"
       inkscape:connector-curvature="0" /><path
       d="m 119.871,498.949 c 0,0 -14.219,-260.429 1.672,-323.16 C 141.914,95.3203 197.559,90 235.77,119.66 c 53.632,41.66 149.652,159.289 149.652,158.449"
       style="fill:none;stroke:#231f20;stroke-width:14;stroke-linecap:round;stroke-linejoin:round;stroke-miterlimit:10;stroke-dasharray:none;stroke-opacity:1"
       id="path46"
       inkscape:connector-curvature="0" /><path
       d="m 220.984,431.25 c 0,0 -38.406,-95.148 -104.507,-60.078"
       style="fill:none;stroke:#231f20;stroke-width:14;stroke-linecap:round;stroke-linejoin:round;stroke-miterlimit:10;stroke-dasharray:none;stroke-opacity:1"
       id="path48"
       inkscape:connector-curvature="0" /><path
       d="m 721.191,632.117 c 22.786,-13.027 142.137,-39.953 212.454,-64.945 40.679,-14.481 75.605,-44.832 114.345,-125.672 14.88,-31.09 52.93,-116.238 52.93,-116.238"
       style="fill:none;stroke:#231f20;stroke-width:14;stroke-linecap:round;stroke-linejoin:round;stroke-miterlimit:10;stroke-dasharray:none;stroke-opacity:1"
       id="path50"
       inkscape:connector-curvature="0" /><path
       d="m 1204.25,490.801 c 0,0 140.3,155.172 116.78,208.492 -23.54,53.293 -86.9,81.641 -116,61.68 -54.4,-37.266 -90.83,-121.512 -90.98,-150.184 -0.14,-28.652 20.2,-43.937 20.2,-43.937 0,0 -35.91,-29.813 -17.67,-79.153 0,0 -17.32,-193.328 -21.27,-255.14"
       style="fill:none;stroke:#231f20;stroke-width:14;stroke-linecap:round;stroke-linejoin:round;stroke-miterlimit:10;stroke-dasharray:none;stroke-opacity:1"
       id="path52"
       inkscape:connector-curvature="0" /><path
       d="m 1166.51,574.129 c 0,0 -27.58,36.152 -25.93,58.594"
       style="fill:none;stroke:#231f20;stroke-width:14;stroke-linecap:round;stroke-linejoin:round;stroke-miterlimit:10;stroke-dasharray:none;stroke-opacity:1"
       id="path54"
       inkscape:connector-curvature="0" /><path
       d="m 1155.63,583.27 c 0,0 -1.21,-20.059 -19.62,-17.418"
       style="fill:none;stroke:#231f20;stroke-width:14;stroke-linecap:round;stroke-linejoin:round;stroke-miterlimit:10;stroke-dasharray:none;stroke-opacity:1"
       id="path56"
       inkscape:connector-curvature="0" /><path
       d="m 1205.17,630.191 c 0,0 -27.73,36.829 -61.97,53.907"
       style="fill:none;stroke:#231f20;stroke-width:14;stroke-linecap:round;stroke-linejoin:round;stroke-miterlimit:10;stroke-dasharray:none;stroke-opacity:1"
       id="path58"
       inkscape:connector-curvature="0" /><path
       d="m 1239.38,655.203 c 0,0 -35.65,50.254 -75.34,63.067"
       style="fill:none;stroke:#231f20;stroke-width:14;stroke-linecap:round;stroke-linejoin:round;stroke-miterlimit:10;stroke-dasharray:none;stroke-opacity:1"
       id="path60-3"
       inkscape:connector-curvature="0" /><path
       d="m 1280.68,692.977 c 0,0 -39.18,48.574 -87.6,57.128"
       style="fill:none;stroke:#231f20;stroke-width:14;stroke-linecap:round;stroke-linejoin:round;stroke-miterlimit:10;stroke-dasharray:none;stroke-opacity:1"
       id="path62"
       inkscape:connector-curvature="0" /><path
       d="m 1206.23,762.398 c 0,0 -40.15,0.762 -71.46,-26.785 -29.23,-25.754 -54.95,-62.16 -43.7,-74.816 10.05,-11.297 33.13,-4.774 33.13,-4.774"
       style="fill:none;stroke:#231f20;stroke-width:14;stroke-linecap:round;stroke-linejoin:round;stroke-miterlimit:10;stroke-dasharray:none;stroke-opacity:1"
       id="path64"
       inkscape:connector-curvature="0" /><path
       d="m 1212.93,498.398 c 0,0 14.19,-260.398 -1.67,-323.16 -20.37,-80.4685 -76.04,-85.7692 -114.23,-56.109 -53.63,41.641 -147.46,171.582 -147.46,170.75"
       style="fill:none;stroke:#231f20;stroke-width:14;stroke-linecap:round;stroke-linejoin:round;stroke-miterlimit:10;stroke-dasharray:none;stroke-opacity:1"
       id="path66"
       inkscape:connector-curvature="0" /><path
       d="m 1111.8,430.73 c 0,0 38.42,-95.171 104.55,-60.101"
       style="fill:none;stroke:#231f20;stroke-width:14;stroke-linecap:round;stroke-linejoin:round;stroke-miterlimit:10;stroke-dasharray:none;stroke-opacity:1"
       id="path68"
       inkscape:connector-curvature="0" /><path
       d="m 724.324,663.863 c 0,0 44.043,-9.441 59.985,-26.816 9.336,-10.203 20.996,-34.024 24.609,-45.625 3.633,-11.602 -5.063,-110.813 -20.273,-130.371 0,0 -6.157,15.437 -14.243,34.488 l -7.886,15.262 -97.368,-149.52 -97.328,149.52 -5.41,-9.41 c -9.297,-21.629 -16.738,-40.34 -16.746,-40.34 -15.207,19.558 -23.898,118.769 -20.285,130.371 3.633,11.601 15.273,35.422 24.629,45.625 15.937,17.375 59.98,26.816 59.98,26.816 l 110.336,0"
       style="fill:#fee79c;fill-opacity:1;fill-rule:nonzero;stroke:none"
       id="path70"
       inkscape:connector-curvature="0" /><path
       d="M 766.516,510.801 669.148,361.281 571.82,510.801"
       style="fill:none;stroke:#231f20;stroke-width:12;stroke-linecap:round;stroke-linejoin:round;stroke-miterlimit:10;stroke-dasharray:none;stroke-opacity:1"
       id="path72"
       inkscape:connector-curvature="0" /><path
       d="m 733.137,592.965 -23.125,-19.59 -39.582,-96.664 -42.918,94.586 -28.75,27.078 16.211,33.742 6.929,55.567 89.161,0 22.074,-94.719"
       style="fill:#fcd0b4;fill-opacity:1;fill-rule:nonzero;stroke:none"
       id="path74"
       inkscape:connector-curvature="0" /><path
       d="m 620.43,655.875 92.5,3.332 6.672,-35 c 0,0 -39.172,-41.66 -103.34,-40 0.847,0.254 -15,10.84 -14.477,9.863 l 18.645,61.805"
       style="fill:#e59686;fill-opacity:1;fill-rule:nonzero;stroke:none"
       id="path76"
       inkscape:connector-curvature="0" /><path
       d="m 613.988,663.863 c 0,0 -44.043,-9.441 -59.98,-26.816 -9.356,-10.203 -20.996,-34.024 -24.629,-45.625 -3.613,-11.602 5.078,-110.813 20.285,-130.371 0,0 39.832,99.937 49.969,105.019"
       style="fill:none;stroke:#231f20;stroke-width:14;stroke-linecap:round;stroke-linejoin:round;stroke-miterlimit:10;stroke-dasharray:none;stroke-opacity:1"
       id="path78"
       inkscape:connector-curvature="0" /><path
       d="m 724.324,663.863 c 0,0 44.043,-9.441 59.985,-26.816 9.336,-10.203 20.996,-34.024 24.609,-45.625 3.633,-11.602 -5.063,-110.813 -20.273,-130.371 0,0 -39.829,99.937 -49.961,105.019"
       style="fill:none;stroke:#231f20;stroke-width:14;stroke-linecap:round;stroke-linejoin:round;stroke-miterlimit:10;stroke-dasharray:none;stroke-opacity:1"
       id="path80"
       inkscape:connector-curvature="0" /><path
       d="m 751.711,624 c 0,0 -10.141,-34.746 -42.016,-49.238 l -40.547,-107.184 -40.55,107.184 c -31.856,14.492 -42,49.238 -42,49.238"
       style="fill:none;stroke:#231f20;stroke-width:14;stroke-linecap:round;stroke-linejoin:round;stroke-miterlimit:10;stroke-dasharray:none;stroke-opacity:1"
       id="path82"
       inkscape:connector-curvature="0" /><path
       d="m 601.223,600.691 c 14.351,33.368 13.179,64.696 13.179,64.696"
       style="fill:none;stroke:#231f20;stroke-width:14;stroke-linecap:round;stroke-linejoin:round;stroke-miterlimit:10;stroke-dasharray:none;stroke-opacity:1"
       id="path84"
       inkscape:connector-curvature="0" /><path
       d="m 716.016,665.387 c 0,0 0.007,-36.141 14.414,-69.512"
       style="fill:none;stroke:#231f20;stroke-width:14;stroke-linecap:round;stroke-linejoin:round;stroke-miterlimit:10;stroke-dasharray:none;stroke-opacity:1"
       id="path86"
       inkscape:connector-curvature="0" /><path
       d="m 331.813,1112.14 c 0,0 -27.891,217.04 6.058,280.08 43.965,81.64 133.234,130.35 231.586,152.78 138.231,31.52 267.965,19.4 300.711,-56.98 0,0 75.176,-3.65 117.605,-95.8 24.547,-53.32 6.067,-280.08 6.067,-280.08"
       style="fill:#b5b0ae;fill-opacity:1;fill-rule:nonzero;stroke:none"
       id="path88"
       inkscape:connector-curvature="0" /><path
       d="m 337.871,1356.67 c 43.965,81.63 133.234,130.34 231.586,152.77 138.231,31.52 267.965,19.4 300.711,-56.98 0,0 75.176,-3.64 117.605,-95.79 8.704,-18.9 11.985,-59.56 12.607,-104.18 0.72,57.4 -1.63,115.9 -12.607,139.73 -42.429,92.15 -117.605,95.8 -117.605,95.8 -32.746,76.38 -162.48,88.5 -300.711,56.98 -98.352,-22.43 -187.621,-71.14 -231.586,-152.78 -14.492,-26.91 -17.703,-81.89 -16.633,-136.07 0.907,41.44 5.332,79.53 16.633,100.52"
       style="fill:#e4e0e1;fill-opacity:1;fill-rule:nonzero;stroke:none"
       id="path90"
       inkscape:connector-curvature="0" /><path
       d="m 368.082,1085.45 c 0,0 -16.437,35.15 -56.754,21.77 -46.074,-15.31 -45.004,-103.98 -0.16,-172.243 41.777,-63.633 74.789,-66.153 92,-66.153"
       style="fill:#fcd0b4;fill-opacity:1;fill-rule:nonzero;stroke:none"
       id="path92"
       inkscape:connector-curvature="0" /><path
       d="m 368.082,1085.45 c 0,0 -16.437,35.15 -56.754,21.77 -46.074,-15.31 -45.004,-103.98 -0.16,-172.243 41.777,-63.633 74.789,-66.153 92,-66.153"
       style="fill:none;stroke:#231f20;stroke-width:14;stroke-linecap:round;stroke-linejoin:round;stroke-miterlimit:10;stroke-dasharray:none;stroke-opacity:1"
       id="path94"
       inkscape:connector-curvature="0" /><path
       d="m 309.551,996.93 c 10.785,-31.328 36.148,-52.285 56.597,-46.797 20.477,5.48 28.293,35.312 17.422,66.707 -10.781,31.33 -36.148,52.32 -56.613,46.8 -20.43,-5.5 -28.234,-35.35 -17.406,-66.71"
       style="fill:#e59686;fill-opacity:1;fill-rule:nonzero;stroke:none"
       id="path96"
       inkscape:connector-curvature="0" /><path
       d="m 303.922,1034.54 c 0,0 7.273,63.05 58.203,16.98"
       style="fill:none;stroke:#231f20;stroke-width:14;stroke-linecap:round;stroke-linejoin:round;stroke-miterlimit:10;stroke-dasharray:none;stroke-opacity:1"
       id="path98"
       inkscape:connector-curvature="0" /><path
       d="m 958.176,1085.45 c 0,0 16.426,35.15 56.744,21.77 46.08,-15.31 45.01,-103.98 0.17,-172.243 -41.777,-63.633 -74.785,-66.153 -92.004,-66.153"
       style="fill:#fcd0b4;fill-opacity:1;fill-rule:nonzero;stroke:none"
       id="path100"
       inkscape:connector-curvature="0" /><path
       d="m 958.176,1085.45 c 0,0 16.426,35.15 56.744,21.77 46.08,-15.31 45.01,-103.98 0.17,-172.243 -41.777,-63.633 -74.785,-66.153 -92.004,-66.153"
       style="fill:none;stroke:#231f20;stroke-width:14;stroke-linecap:round;stroke-linejoin:round;stroke-miterlimit:10;stroke-dasharray:none;stroke-opacity:1"
       id="path102"
       inkscape:connector-curvature="0" /><path
       d="m 1017.31,998.141 c -10.8,-31.328 -36.15,-52.286 -56.595,-46.797 -20.488,5.48 -28.305,35.312 -17.422,66.716 10.777,31.32 36.148,52.31 56.602,46.79 20.435,-5.5 28.235,-35.35 17.415,-66.709"
       style="fill:#e59686;fill-opacity:1;fill-rule:nonzero;stroke:none"
       id="path104"
       inkscape:connector-curvature="0" /><path
       d="m 1022.33,1034.54 c 0,0 -7.28,63.05 -58.197,16.98"
       style="fill:none;stroke:#231f20;stroke-width:14;stroke-linecap:round;stroke-linejoin:round;stroke-miterlimit:10;stroke-dasharray:none;stroke-opacity:1"
       id="path106"
       inkscape:connector-curvature="0" /><path
       d="m 663.223,636.031 c -80.836,0 -186.989,68.606 -229.563,116.407 -46.078,51.718 -75.984,315.242 -75.984,363.752 0,0 -1.145,54.17 26.269,100.22 30.313,50.93 34.274,81.95 42.442,120.04 3.636,16.98 80.023,70.32 126.097,65.48 46.075,-4.85 240.075,-10.92 297.059,30.31 0,0 31.531,-32.73 43.648,-66.69 12.129,-33.95 8.497,-73.96 48.508,-149.14 25.176,-47.3 26.281,-100.22 26.281,-100.22 0,-48.51 -29.921,-312.034 -76,-363.752 C 849.414,704.637 743.254,636.031 662.422,636.031"
       style="fill:#fcd0b4;fill-opacity:1;fill-rule:nonzero;stroke:none"
       id="path108"
       inkscape:connector-curvature="0" /><path
       d="m 663.223,636.031 c -80.836,0 -186.989,68.606 -229.563,116.407 -46.078,51.718 -75.984,315.242 -75.984,363.752 0,0 -1.145,54.17 26.269,100.22 30.313,50.93 34.274,81.95 42.442,120.04 3.636,16.98 80.023,70.32 126.097,65.48 46.075,-4.85 240.075,-10.92 297.059,30.31 0,0 31.531,-32.73 43.648,-66.69 12.129,-33.95 8.497,-73.96 48.508,-149.14 25.176,-47.3 26.281,-100.22 26.281,-100.22 0,-48.51 -29.921,-312.034 -76,-363.752 C 849.414,704.637 743.254,636.031 662.422,636.031"
       style="fill:none;stroke:#231f20;stroke-width:14;stroke-linecap:round;stroke-linejoin:round;stroke-miterlimit:10;stroke-dasharray:none;stroke-opacity:1"
       id="path110"
       inkscape:connector-curvature="0" /><path
       d="m 444.27,1172.77 c 2.043,12.21 14.339,48.22 41.527,56.98 43.34,13.94 82.035,3.64 101.848,-7.27 19.82,-10.92 7.394,-13.58 -1.207,-13.34 -66.086,1.81 -103.86,-5.45 -128.954,-41.23 -10.527,-14.98 -14.539,-3.03 -13.214,4.86"
       style="fill:#b5b0ae;fill-opacity:1;fill-rule:nonzero;stroke:none"
       id="path112"
       inkscape:connector-curvature="0" /><path
       d="m 444.27,1172.77 c 2.043,12.21 14.339,48.22 41.527,56.98 43.34,13.94 82.035,3.64 101.848,-7.27 19.82,-10.92 7.394,-13.58 -1.207,-13.34 -66.086,1.81 -103.86,-5.45 -128.954,-41.23 -10.527,-14.98 -14.539,-3.03 -13.214,4.86 z"
       style="fill:none;stroke:#231f20;stroke-width:10;stroke-linecap:round;stroke-linejoin:round;stroke-miterlimit:10;stroke-dasharray:none;stroke-opacity:1"
       id="path114"
       inkscape:connector-curvature="0" /><path
       d="m 331.813,1112.14 c 0,0 -27.891,217.04 6.058,280.08 43.965,81.64 133.234,130.35 231.586,152.78 138.231,31.52 267.965,19.4 300.711,-56.98 0,0 75.176,-3.65 117.605,-95.8 24.547,-53.32 6.067,-280.08 6.067,-280.08"
       style="fill:none;stroke:#231f20;stroke-width:14;stroke-linecap:round;stroke-linejoin:round;stroke-miterlimit:10;stroke-dasharray:none;stroke-opacity:1"
       id="path116"
       inkscape:connector-curvature="0" /><path
       d="m 621.172,946.422 c 0,0 41.168,-11.317 83.293,2.422 0,0 -12.735,-27.481 -42.137,-27.481 -29.394,0 -35.273,16.172 -41.156,25.059"
       style="fill:#e59686;fill-opacity:1;fill-rule:nonzero;stroke:none"
       id="path118"
       inkscape:connector-curvature="0" /><path
       d="m 624.023,949.664 c 0,0 36.372,-21.219 75.782,2.422"
       style="fill:none;stroke:#231f20;stroke-width:14;stroke-linecap:round;stroke-linejoin:round;stroke-miterlimit:10;stroke-dasharray:none;stroke-opacity:1"
       id="path120"
       inkscape:connector-curvature="0" /><path
       d="m 529.297,906.852 c 0,0 -41.785,-42.637 -38.035,-137.637"
       style="fill:none;stroke:#231f20;stroke-width:12;stroke-linecap:round;stroke-linejoin:round;stroke-miterlimit:10;stroke-dasharray:none;stroke-opacity:1"
       id="path122"
       inkscape:connector-curvature="0" /><path
       d="m 790.723,906.852 c 0,0 41.789,-42.637 38.039,-137.637"
       style="fill:none;stroke:#231f20;stroke-width:12;stroke-linecap:round;stroke-linejoin:round;stroke-miterlimit:10;stroke-dasharray:none;stroke-opacity:1"
       id="path124"
       inkscape:connector-curvature="0" /><path
       d="m 710.168,1074.99 c 0,-38.84 28.023,-70.33 62.598,-70.33 34.589,0 62.593,31.49 62.593,70.33 0,38.81 -28.004,70.28 -62.593,70.28 -34.575,0 -62.598,-31.47 -62.598,-70.28"
       style="fill:#ffffff;fill-opacity:1;fill-rule:nonzero;stroke:none"
       id="path126"
       inkscape:connector-curvature="0" /><path
       d="m 835.93,1085.58 c 0,0 -6.582,45.18 -51.367,57.72 -52.407,14.68 -65.833,-35.12 -65.833,-35.12 0,0 27.293,19.1 59.793,11.3 30.649,-7.37 57.407,-33.9 57.407,-33.9"
       style="fill:#deedfa;fill-opacity:1;fill-rule:nonzero;stroke:none"
       id="path128"
       inkscape:connector-curvature="0" /><path
       d="m 716.777,1091.52 c 4.856,66.7 105.489,92.16 128.977,-21.63"
       style="fill:none;stroke:#231f20;stroke-width:14;stroke-linecap:round;stroke-linejoin:round;stroke-miterlimit:10;stroke-dasharray:none;stroke-opacity:1"
       id="path130"
       inkscape:connector-curvature="0" /><path
       d="m 881.98,1172.77 c -2.046,12.21 -14.335,48.22 -41.519,56.98 -43.344,13.94 -82.031,3.64 -101.856,-7.27 -19.816,-10.92 -7.382,-13.58 1.208,-13.34 66.085,1.81 103.871,-5.45 128.957,-41.23 10.515,-14.98 14.543,-3.03 13.21,4.86"
       style="fill:#b5b0ae;fill-opacity:1;fill-rule:nonzero;stroke:none"
       id="path132"
       inkscape:connector-curvature="0" /><path
       d="m 881.98,1172.77 c -2.046,12.21 -14.335,48.22 -41.519,56.98 -43.344,13.94 -82.031,3.64 -101.856,-7.27 -19.816,-10.92 -7.382,-13.58 1.208,-13.34 66.085,1.81 103.871,-5.45 128.957,-41.23 10.515,-14.98 14.543,-3.03 13.21,4.86 z"
       style="fill:none;stroke:#231f20;stroke-width:10;stroke-linecap:round;stroke-linejoin:round;stroke-miterlimit:10;stroke-dasharray:none;stroke-opacity:1"
       id="path134"
       inkscape:connector-curvature="0" /><path
       d="m 612.582,1074.99 c 0,-38.84 -28.016,-70.33 -62.594,-70.33 -34.593,0 -62.593,31.49 -62.593,70.33 0,38.81 28,70.28 62.593,70.28 34.578,0 62.594,-31.47 62.594,-70.28"
       style="fill:#ffffff;fill-opacity:1;fill-rule:nonzero;stroke:none"
       id="path136"
       inkscape:connector-curvature="0" /><path
       d="m 486.824,1085.58 c 0,0 6.574,45.18 51.36,57.72 52.406,14.68 65.843,-35.12 65.843,-35.12 0,0 -27.297,19.1 -59.797,11.3 -30.656,-7.37 -57.406,-33.9 -57.406,-33.9"
       style="fill:#deedfa;fill-opacity:1;fill-rule:nonzero;stroke:none"
       id="path138"
       inkscape:connector-curvature="0" /><path
       d="m 596.832,1071.69 c 0,-27.12 -14.883,-49.12 -33.262,-49.12 -18.351,0 -33.234,22 -33.234,49.12 0,27.11 14.883,49.11 33.234,49.11 18.379,0 33.262,-22 33.262,-49.11"
       style="fill:#231f20;fill-opacity:1;fill-rule:nonzero;stroke:none"
       id="path140"
       inkscape:connector-curvature="0" /><path
       d="m 609.473,1091.52 c -4.848,66.7 -105.489,92.16 -128.985,-21.63"
       style="fill:none;stroke:#231f20;stroke-width:14;stroke-linecap:round;stroke-linejoin:round;stroke-miterlimit:10;stroke-dasharray:none;stroke-opacity:1"
       id="path142"
       inkscape:connector-curvature="0" /><path
       d="m 574.215,1093.94 c 0,-5.18 4.48,-9.43 10.008,-9.43 5.5,0 9.972,4.25 9.972,9.43 0,5.23 -4.472,9.45 -9.972,9.45 -5.528,0 -10.008,-4.22 -10.008,-9.45"
       style="fill:#ffffff;fill-opacity:1;fill-rule:nonzero;stroke:none"
       id="path144"
       inkscape:connector-curvature="0" /><path
       d="m 796.262,1071.69 c 0,-27.12 -14.883,-49.12 -33.266,-49.12 -18.355,0 -33.238,22 -33.238,49.12 0,27.11 14.883,49.11 33.238,49.11 18.383,0 33.266,-22 33.266,-49.11"
       style="fill:#231f20;fill-opacity:1;fill-rule:nonzero;stroke:none"
       id="path146"
       inkscape:connector-curvature="0" /><path
       d="m 773.645,1093.94 c 0,-5.18 4.468,-9.43 10,-9.43 5.503,0 9.976,4.25 9.976,9.43 0,5.23 -4.473,9.45 -9.976,9.45 -5.532,0 -10,-4.22 -10,-9.45"
       style="fill:#ffffff;fill-opacity:1;fill-rule:nonzero;stroke:none"
       id="path148"
       inkscape:connector-curvature="0" /><path
       d="m 506.82,985.613 c 0,-12.726 -22.621,-23.019 -50.527,-23.019 -27.926,0 -50.555,10.293 -50.555,23.019 0,12.684 22.629,22.957 50.555,22.957 27.906,0 50.527,-10.273 50.527,-22.957"
       style="fill:#f6807f;fill-opacity:1;fill-rule:nonzero;stroke:none"
       id="path150"
       inkscape:connector-curvature="0" /><path
       d="m 920.691,985.613 c 0,-12.726 -22.625,-23.019 -50.523,-23.019 -27.934,0 -50.566,10.293 -50.566,23.019 0,12.684 22.632,22.957 50.566,22.957 27.898,0 50.523,-10.273 50.523,-22.957"
       style="fill:#f6807f;fill-opacity:1;fill-rule:nonzero;stroke:none"
       id="path152"
       inkscape:connector-curvature="0" /><path
       d="m 689.102,686.012 c 0,-4.922 -13.399,-8.907 -29.918,-8.907 -16.516,0 -29.911,3.985 -29.911,8.907 0,4.914 13.395,8.886 29.911,8.886 16.519,0 29.918,-3.972 29.918,-8.886"
       style="fill:#e59686;fill-opacity:1;fill-rule:nonzero;stroke:none"
       id="path154"
       inkscape:connector-curvature="0" /><path
       d="m 661.992,715.582 c -81.609,0 -87.441,119.336 -88.406,146.133 0,0 85.555,-21.621 173.594,0 -0.981,-26.797 -6.821,-146.133 -88.418,-146.133"
       style="fill:#ed5f70;fill-opacity:1;fill-rule:nonzero;stroke:none"
       id="path156"
       inkscape:connector-curvature="0" /><path
       d="m 660.754,827.672 c 34.383,0 63.601,-17.559 74.766,-42.109 9.683,31.191 11.21,63.691 11.66,76.152 -88.039,-21.621 -173.594,0 -173.594,0 0.445,-12.598 1.988,-45.645 11.961,-77.129 10.808,25.059 40.344,43.086 75.207,43.086"
       style="fill:#d54851;fill-opacity:1;fill-rule:nonzero;stroke:none"
       id="path158"
       inkscape:connector-curvature="0" /><path
       d="m 661.992,715.582 c -81.609,0 -87.441,119.336 -88.406,146.133 0,0 85.555,-21.621 173.594,0 -0.981,-26.797 -6.821,-146.133 -88.418,-146.133"
       style="fill:none;stroke:#231f20;stroke-width:12;stroke-linecap:round;stroke-linejoin:round;stroke-miterlimit:10;stroke-dasharray:none;stroke-opacity:1"
       id="path160"
       inkscape:connector-curvature="0" /></g></svg>